# xmcd CD database file generated by Grip 2.95
# 
# Track frame offsets:
#       150
#       30624
#       51291
#       85360
#       113027
#       126080
#       149993
#       161638
#       179397
#       205388
#       215648
# 
# Disc length: 3219 seconds
# 
# Revision: 3
# Processed by: cddbd v1.4b41PL1 Copyright (c) Steve Scherf et al.
# Submitted via: Grip 2.95
# 
DISCID=ab0c910b
DTITLE=Stew Cutler - Trio Music
DYEAR=1900
DGENRE=
TTITLE0=Burma
TTITLE1=Recluse
TTITLE2=Open To
TTITLE3=Change of Heart
TTITLE4=Booker's Boogie
TTITLE5=Mourning Dance
TTITLE6=Up To Your Eyeballs
TTITLE7=Voice of Reason
TTITLE8=C.C.
TTITLE9=Lukewarm
TTITLE10=Luullabye
EXTD=
EXTT0=
EXTT1=
EXTT2=
EXTT3=
EXTT4=
EXTT5=
EXTT6=
EXTT7=
EXTT8=
EXTT9=
EXTT10=
PLAYORDER=
